<?xml version="1.0" encoding="UTF-8"?>
<svg xmlns="http://www.w3.org/2000/svg" width="1024" height="1024" viewBox="0 0 1024 1024" fill="none">
  <g transform="translate(512 512) scale(1) translate(-512 -512)">
    <svg width="1024" height="1024" viewBox="-32 -32 1088 1088">
      <title>xopc mark</title>
  <!-- Preserve the outer circumference while making the ring thicker inward. -->
  <defs>
    <clipPath id="outer-circumference">
      <circle cx="512" cy="512" r="512" />
    </clipPath>
  </defs>
  <g clip-path="url(#outer-circumference)">
    <g transform="translate(1.414 0) scale(0.70718232)">
    <g transform="translate(0 1448) scale(.1 -.1)" fill="#111827" stroke="none">
      <path d="M6170 14469 c-252 -40 -401 -67 -567 -105 -568 -127 -1089 -311 -1603 -565 -584 -288 -1094 -630 -1595 -1070 -174 -153 -463 -442 -620 -619 -800 -905 -1364 -1975 -1655 -3140 -77 -306 -130 -611 -130 -742 0 -69 26 -170 62 -242 35 -69 120 -162 188 -206 67 -43 153 -70 245 -77 192 -13 364 76 474 247 22 34 49 89 60 123 11 34 32 133 45 219 92 565 281 1151 550 1703 231 473 473 852 799 1250 370 451 850 882 1362 1222 204 135 345 218 570 334 588 303 1221 506 1897 608 76 12 163 30 193 42 116 43 222 135 280 241 32 59 65 186 65 252 0 76 -26 183 -61 255 -43 87 -136 179 -224 221 -65 31 -189 60 -250 58 -16 0 -55 -4 -85 -9z M8065 14470 c-160 -32 -300 -139 -373 -285 -59 -119 -72 -268 -32 -385 29 -86 63 -144 124 -209 62 -66 131 -111 211 -139 33 -12 142 -33 242 -47 623 -87 1212 -270 1788 -555 449 -223 870 -502 1260 -836 167 -143 455 -425 590 -579 661 -752 1127 -1626 1375 -2580 41 -158 97 -448 125 -650 14 -97 24 -135 55 -201 46 -95 113 -173 194 -226 84 -54 169 -78 276 -78 156 0 289 57 392 168 93 101 138 223 138 372 0 103 -38 369 -86 602 -119 583 -313 1138 -589 1683 -231 456 -494 866 -807 1256 -165 206 -282 341 -439 503 -425 441 -804 762 -1264 1071 -816 547 -1700 908 -2609 1065 -327 56 -474 69 -571 50z M3875 10671 c-87 -25 -159 -67 -225 -133 -100 -100 -150 -225 -150 -376 0 -90 33 -195 90 -285 30 -48 262 -279 977 -972 516 -501 1006 -976 1089 -1057 83 -82 159 -148 168 -148 27 0 268 120 389 194 199 121 487 349 487 386 0 11 -295 307 -712 717 -679 665 -1251 1223 -1513 1473 -130 125 -209 175 -321 204 -79 21 -203 19 -279 -3z M10300 10674 c-36 -7 -99 -30 -140 -50 -61 -31 -97 -60 -206 -168 -166 -165 -1199 -1216 -1873 -1906 -282 -289 -556 -567 -609 -619 -197 -189 -388 -328 -840 -607 -618 -382 -673 -425 -1126 -873 -713 -707 -1882 -1898 -1920 -1956 -47 -70 -83 -168 -91 -250 -9 -80 15 -190 60 -281 23 -47 57 -93 100 -136 104 -104 226 -158 360 -158 81 0 153 19 240 62 49 24 106 76 306 277 135 135 586 595 1003 1021 417 426 824 840 905 921 80 80 196 185 256 233 143 114 356 255 690 456 411 248 604 381 777 538 65 58 445 442 2333 2352 261 264 306 314 338 376 47 91 67 170 67 264 0 89 -20 173 -58 244 -39 74 -145 177 -221 215 -70 36 -172 61 -241 60 -25 0 -74 -7 -110 -15z M391 6764 c-84 -22 -170 -73 -236 -139 -66 -66 -114 -148 -141 -240 -14 -49 -16 -83 -11 -185 8 -156 41 -339 117 -640 156 -621 332 -1095 609 -1635 258 -502 550 -943 914 -1377 405 -485 910 -947 1427 -1307 309 -215 583 -378 915 -543 340 -170 645 -296 1000 -412 293 -95 501 -150 795 -211 404 -83 521 -92 647 -50 41 14 96 40 122 57 119 82 199 207 228 357 14 70 15 96 5 163 -15 103 -60 197 -130 270 -112 118 -201 156 -454 197 -323 53 -604 121 -918 223 -429 140 -822 317 -1228 555 -286 167 -570 366 -817 573 -276 230 -563 517 -796 795 -216 260 -448 590 -618 880 -147 250 -333 635 -428 885 -144 379 -242 733 -303 1097 -16 98 -34 209 -41 247 -17 102 -78 215 -158 295 -36 36 -93 81 -127 98 -112 60 -258 78 -373 47z M13794 6766 c-100 -23 -172 -64 -250 -141 -101 -100 -137 -179 -164 -356 -60 -397 -137 -726 -251 -1069 -202 -610 -501 -1184 -892 -1710 -194 -261 -377 -468 -638 -725 -459 -450 -974 -817 -1547 -1104 -429 -215 -822 -362 -1272 -475 -213 -54 -375 -88 -580 -120 -85 -13 -181 -34 -212 -46 -32 -12 -85 -39 -118 -61 -143 -96 -230 -260 -230 -434 0 -84 20 -169 58 -245 37 -75 142 -180 220 -219 99 -50 171 -64 287 -58 159 9 588 96 920 187 206 56 555 174 760 255 818 324 1567 789 2225 1381 156 140 483 471 616 624 276 315 547 688 761 1045 290 484 541 1048 703 1580 98 325 181 688 231 1013 21 136 22 161 11 234 -29 198 -162 358 -351 424 -86 30 -207 38 -287 20z M8565 6534 c-225 -121 -403 -225 -523 -307 -103 -70 -192 -147 -192 -167 0 -6 381 -396 848 -867 466 -470 972 -982 1124 -1138 239 -244 286 -287 346 -318 78 -41 173 -67 247 -67 71 0 169 25 235 61 121 64 211 170 258 303 20 56 25 90 25 161 -1 106 -24 188 -80 284 -31 52 -241 269 -1072 1103 -568 571 -1039 1038 -1045 1038 -6 0 -83 -39 -171 -86z" stroke="#111827" stroke-width="576" stroke-linejoin="round" />
    </g>
  </g>
  </g>
    </svg>
  </g>
</svg>
